<?xml version="1.0" encoding="UTF-8"?>
<svg id="Layer_2" data-name="Layer 2" xmlns="http://www.w3.org/2000/svg" viewBox="0 0 270.58 76.38">
  <defs>
    <style>
      .cls-1 {
        fill: #adadad;
      }
    </style>
  </defs>
  <g id="Layer_1-2" data-name="Layer 1">
    <g>
      <g>
        <path class="cls-1" d="M41.89,76.38v-7.66h-3.83v-1.59h9.26v1.59h-3.83v7.66h-1.59Z"/>
        <path class="cls-1" d="M67.06,76.38v-9.25h1.59v3.83h6.27v-3.83h1.59v9.25h-1.59v-3.83h-6.27v3.83h-1.59Z"/>
        <path class="cls-1" d="M96.78,76.38v-9.25h8.51v1.59h-6.9v2.24h5.55v1.59h-5.55v2.24h6.9v1.59h-8.51Z"/>
        <path class="cls-1" d="M148.02,76.38v-9.27h1.59v7.67h7.66v1.59h-9.26Z"/>
        <path class="cls-1" d="M176.81,68.87c0-.32.08-.61.24-.87.16-.27.37-.48.64-.64.26-.16.56-.24.87-.24h5.75c.33,0,.62.08.89.24.27.16.48.37.64.64.16.27.24.56.24.87v7.51h-1.61v-3.15h-6.05v3.15h-1.59v-7.51ZM184.46,71.63v-2.7c0-.06-.02-.11-.06-.15-.04-.04-.09-.06-.15-.06h-5.64c-.06,0-.11.02-.15.06-.04.04-.06.09-.06.15v2.7h6.05Z"/>
        <path class="cls-1" d="M206.34,67.12h7.13c.32,0,.61.08.87.24.27.16.48.37.64.64.16.27.24.56.24.87v1.84c0,.11-.01.22-.03.33s-.05.21-.1.3c.15.21.28.43.37.64s.13.42.13.64v2.02c0,.32-.08.61-.24.87-.16.27-.37.48-.64.64-.27.16-.56.24-.89.24h-7.49v-9.25ZM208.14,70.86h5.26c.06,0,.11-.02.15-.06.04-.04.06-.09.06-.15v-1.72c0-.06-.02-.11-.06-.15s-.09-.06-.15-.06h-5.26c-.06,0-.11.02-.15.06-.04.04-.06.09-.06.15v1.72c0,.06.02.11.06.15.04.04.09.06.15.06ZM208.14,74.78h5.64c.06,0,.11-.02.15-.06.04-.04.06-.09.06-.15v-1.89c0-.06-.02-.11-.06-.15-.04-.04-.09-.06-.15-.06h-5.64c-.06,0-.11.02-.15.06-.04.04-.06.09-.06.15v1.89c0,.06.02.11.06.15.04.04.09.06.15.06Z"/>
      </g>
      <path d="M85.56,28.91c0-3.73.71-7.23,2.12-10.51,1.41-3.28,3.33-6.15,5.76-8.6,2.43-2.46,5.3-4.39,8.6-5.81,3.31-1.41,6.82-2.12,10.55-2.12s7.23.71,10.51,2.12c3.28,1.41,6.13,3.35,8.56,5.81,2.43,2.46,4.35,5.33,5.76,8.6,1.41,3.28,2.12,6.78,2.12,10.51s-.71,7.23-2.12,10.51c-1.41,3.28-3.34,6.15-5.76,8.6-2.43,2.46-5.28,4.39-8.56,5.81-3.28,1.41-6.78,2.12-10.51,2.12s-7.25-.71-10.55-2.12c-3.31-1.41-6.18-3.35-8.6-5.81-2.43-2.46-4.35-5.33-5.76-8.6-1.41-3.28-2.12-6.78-2.12-10.51ZM96.75,28.91c0,2.2.41,4.27,1.23,6.19.82,1.92,1.95,3.6,3.39,5.04,1.44,1.44,3.12,2.57,5.04,3.39,1.92.82,3.98,1.23,6.19,1.23s4.25-.41,6.15-1.23c1.89-.82,3.56-1.95,5-3.39,1.44-1.44,2.57-3.12,3.39-5.04.82-1.92,1.23-3.98,1.23-6.19s-.41-4.25-1.23-6.15c-.82-1.89-1.95-3.56-3.39-5-1.44-1.44-3.11-2.57-5-3.39-1.89-.82-3.94-1.23-6.15-1.23s-4.27.41-6.19,1.23c-1.92.82-3.6,1.95-5.04,3.39-1.44,1.44-2.57,3.11-3.39,5-.82,1.89-1.23,3.94-1.23,6.15Z"/>
      <rect y="12.35" width="11.15" height="41.98"/>
      <rect x="38.89" y="12.35" width="11.15" height="41.98"/>
      <rect x="59.73" y="12.2" width="11.15" height="42.12"/>
      <rect x="70.88" y="1.13" width="11.15" height="11.15"/>
      <rect x="19.45" y="-7.1" width="11.15" height="27.75" transform="translate(31.79 -18.24) rotate(90)"/>
      <rect x="19.45" y="11.43" width="11.15" height="38.89" transform="translate(55.89 5.85) rotate(90)"/>
      <path d="M166.73,0c2.73,0,5.35.5,7.86,1.49,2.51,1,4.7,2.39,6.58,4.19,1.88,1.79,3.39,3.92,4.53,6.36,1.14,2.45,1.71,5.1,1.71,7.94v28.78c0,1.48-.53,2.76-1.58,3.84-1.05,1.08-2.35,1.65-3.89,1.71-1.54,0-2.86-.5-3.97-1.49-1.11-1-1.67-2.26-1.67-3.8v-28.36c0-1.31-.24-2.55-.73-3.72-.48-1.17-1.17-2.18-2.05-3.03-.88-.85-1.91-1.54-3.08-2.05-1.17-.51-2.43-.77-3.8-.77-1.25,0-2.45.24-3.59.73-1.14.48-2.14,1.12-2.99,1.92-.85.8-1.54,1.77-2.05,2.9-.51,1.14-.77,2.34-.77,3.59v28.53c0,1.48-.57,2.78-1.71,3.89-1.14,1.11-2.45,1.67-3.93,1.67s-2.79-.51-3.93-1.54c-1.14-1.03-1.71-2.28-1.71-3.76v-28.36c.06-2.85.61-5.52,1.67-8.03,1.05-2.51,2.51-4.7,4.36-6.58,1.85-1.88,4.03-3.36,6.53-4.44,2.51-1.08,5.24-1.62,8.2-1.62Z"/>
      <rect x="197.54" y="15.03" width="11.17" height="39.27" rx="5.59" ry="5.59"/>
      <path d="M247.75,43.63l-6.55-8.65c4.49-3.64,11.44-2.94,15.27,1.35l14.11,18.55c-5.1,3.51-11.71,2.71-15.72-1.98-17.23,8.67-37.94-3.17-39.02-22.44-1.08-19.19,17.65-33.35,35.86-26.96,15.52,5.44,22.73,24.34,14.27,38.62-2.31-2.72-4.29-5.98-6.64-8.64,0,0,0,0-.01-.01-.8-.89-1.24-2.06-1.16-3.26.07-1.07.14-2.14,0-3.28-1.74-14.49-21.05-18.8-28.78-6.29s4.65,27.72,18.37,22.99Z"/>
      <circle cx="203.15" cy="5.79" r="5.72"/>
    </g>
  </g>
</svg>