<svg width="20" height="18" viewBox="0 0 20 18" fill="none" xmlns="http://www.w3.org/2000/svg">
<mask id="mask0_1_531" style="mask-type:luminance" maskUnits="userSpaceOnUse" x="-3" y="-3" width="25" height="25">
<path d="M21.0545 -2.99789H-2.94418V21.0008H21.0545V-2.99789Z" fill="white"/>
</mask>
<g mask="url(#mask0_1_531)">
<path d="M3.99979 2.00089C3.99952 2.5313 3.78856 3.03987 3.41332 3.41474C3.03808 3.7896 2.5293 4.00005 1.99889 3.99979C1.46848 3.99952 0.959909 3.78856 0.585049 3.41332C0.210179 3.03808 -0.000269726 2.5293 2.59454e-07 1.99889C0.000260246 1.46848 0.211219 0.959909 0.586459 0.585049C0.961699 0.210179 1.47048 -0.000269726 2.00089 2.59454e-07C2.5313 0.000260246 3.03987 0.211219 3.41474 0.586459C3.7896 0.961699 4.00005 1.47048 3.99979 2.00089ZM4.05979 5.48071H0.059997V18H4.05979V5.48071ZM10.3794 5.48071H6.39966V18H10.3394V11.4303C10.3394 7.77054 15.1092 7.43056 15.1092 11.4303V18H19.0589V10.0704C19.0589 3.90079 11.9993 4.13078 10.3394 7.16057L10.3794 5.48071Z" fill="white" fill-opacity="0.7"/>
</g>
</svg>
