<svg width="24" height="24" viewBox="0 0 24 24" fill="none" xmlns="http://www.w3.org/2000/svg">
<path d="M12.7874 17.5804C12.8923 17.6849 12.9755 17.8091 13.0323 17.9458C13.0891 18.0826 13.1183 18.2292 13.1183 18.3772C13.1183 18.5253 13.0891 18.6719 13.0323 18.8087C12.9755 18.9454 12.8923 19.0696 12.7874 19.1741L12.2306 19.731C11.1753 20.7862 9.74412 21.379 8.2518 21.379C6.75948 21.379 5.32828 20.7862 4.27305 19.731C3.21782 18.6758 2.625 17.2446 2.625 15.7522C2.625 14.2599 3.21782 12.8287 4.27305 11.7735L6.5343 9.51318C7.54819 8.49678 8.91234 7.90652 10.3473 7.86329C11.7823 7.82007 13.1795 8.32715 14.2527 9.28068C14.3635 9.37917 14.4539 9.49852 14.5185 9.63192C14.5832 9.76532 14.621 9.91015 14.6297 10.0581C14.6384 10.2061 14.6179 10.3544 14.5693 10.4945C14.5207 10.6345 14.445 10.7636 14.3465 10.8744C14.248 10.9852 14.1286 11.0756 13.9953 11.1402C13.8619 11.2049 13.717 11.2427 13.569 11.2514C13.421 11.2601 13.2728 11.2396 13.1327 11.191C12.9927 11.1424 12.8635 11.0667 12.7527 10.9682C12.1092 10.3966 11.2715 10.0925 10.4112 10.1182C9.5508 10.1438 8.73273 10.4971 8.1243 11.106L5.86493 13.3635C5.23189 13.9965 4.87625 14.8551 4.87625 15.7504C4.87625 16.6456 5.23189 17.5042 5.86493 18.1372C6.49797 18.7703 7.35655 19.1259 8.2518 19.1259C9.14705 19.1259 10.0056 18.7703 10.6387 18.1372L11.1956 17.5804C11.3 17.4758 11.4241 17.3928 11.5607 17.3362C11.6973 17.2796 11.8436 17.2504 11.9915 17.2504C12.1393 17.2504 12.2857 17.2796 12.4223 17.3362C12.5589 17.3928 12.6829 17.4758 12.7874 17.5804ZM19.7324 4.26787C18.6763 3.21426 17.2455 2.62256 15.7537 2.62256C14.2619 2.62256 12.831 3.21426 11.7749 4.26787L11.2181 4.82474C11.0067 5.03609 10.888 5.32273 10.888 5.62162C10.888 5.9205 11.0067 6.20715 11.2181 6.41849C11.4294 6.62984 11.716 6.74857 12.0149 6.74857C12.3138 6.74857 12.6005 6.62984 12.8118 6.41849L13.3687 5.86162C14.0017 5.22858 14.8603 4.87294 15.7556 4.87294C16.6508 4.87294 17.5094 5.22858 18.1424 5.86162C18.7755 6.49466 19.1311 7.35324 19.1311 8.24849C19.1311 9.14374 18.7755 10.0023 18.1424 10.6354L15.8821 12.8966C15.2732 13.5052 14.4546 13.8581 13.5941 13.883C12.7335 13.9079 11.8959 13.603 11.2527 13.0307C11.1419 12.9322 11.0128 12.8565 10.8728 12.8079C10.7327 12.7593 10.5844 12.7388 10.4364 12.7475C10.2885 12.7562 10.1436 12.794 10.0102 12.8586C9.87683 12.9233 9.75748 13.0136 9.65899 13.1244C9.5605 13.2352 9.4848 13.3643 9.4362 13.5044C9.38761 13.6445 9.36708 13.7927 9.37579 13.9407C9.38449 14.0887 9.42226 14.2335 9.48694 14.3669C9.55162 14.5003 9.64194 14.6197 9.75274 14.7182C10.8252 15.6715 12.2215 16.1789 13.6558 16.1365C15.0901 16.0942 16.454 15.5053 17.4684 14.4904L19.7296 12.2301C20.7845 11.1742 21.3772 9.74295 21.3777 8.25048C21.3783 6.75801 20.7865 5.32632 19.7324 4.26974V4.26787Z" fill="white" fill-opacity="0.7"/>
</svg>
