<svg width="21" height="17" viewBox="0 0 21 17" fill="none" xmlns="http://www.w3.org/2000/svg">
<mask id="mask0_1_538" style="mask-type:luminance" maskUnits="userSpaceOnUse" x="-2" y="-4" width="25" height="25">
<path d="M22.7906 -3.78391H-1.82709V20.8338H22.7906V-3.78391Z" fill="white"/>
</mask>
<g mask="url(#mask0_1_538)">
<path d="M20.9077 2.01808C20.1245 2.36447 19.2941 2.59196 18.4438 2.69302C19.34 2.15701 20.0109 1.31342 20.3312 0.319461C19.4901 0.820021 18.568 1.17082 17.6068 1.36058C16.9612 0.669832 16.1055 0.211728 15.1727 0.0574771C14.2399 -0.0967733 13.2822 0.0614877 12.4486 0.507642C11.615 0.953797 10.9522 1.66286 10.5632 2.52459C10.1741 3.38632 10.0807 4.35243 10.2973 5.27275C8.59173 5.18726 6.92304 4.74401 5.39978 3.97177C3.87651 3.19954 2.53268 2.11558 1.45552 0.790275C1.07424 1.44516 0.873887 2.18962 0.874954 2.9474C0.874954 4.43472 1.63195 5.74869 2.78283 6.51798C2.10175 6.49654 1.43565 6.31262 0.840079 5.98153V6.03487C0.840284 7.02541 1.18305 7.9854 1.81027 8.75214C2.43749 9.51878 3.31055 10.045 4.28143 10.2414C3.64917 10.4127 2.98624 10.438 2.34278 10.3153C2.61652 11.1679 3.15005 11.9136 3.86866 12.4479C4.58728 12.9822 5.45501 13.2784 6.35034 13.295C5.46049 13.9939 4.44163 14.5105 3.35199 14.8154C2.26235 15.1202 1.12332 15.2073 0 15.0716C1.9609 16.3326 4.24358 17.0021 6.57498 17C14.4659 17 18.7813 10.463 18.7813 4.79373C18.7813 4.6091 18.7762 4.42241 18.768 4.23983C19.6078 3.63277 20.3327 2.88075 20.9087 2.01911L20.9077 2.01808Z" fill="white" fill-opacity="0.7"/>
</g>
</svg>
